<svg version="1.1" id="Layer_1" xmlns="http://www.w3.org/2000/svg" xmlns:xlink="http://www.w3.org/1999/xlink" x="0px" y="0px"
	 width="100%" viewBox="0 0 1000 1000" enable-background="new 0 0 1000 1000" xml:space="preserve">
<path fill="#000000" opacity="1.000000" stroke="none" 
	d="

M741.053589,477.589844 
	C746.238159,475.967957 751.509888,474.578064 756.586609,472.669342 
	C764.039124,469.867432 771.332886,466.646332 778.730103,463.693481 
	C786.012085,460.786621 793.216736,457.599609 800.686035,455.277496 
	C806.187622,453.567108 812.061279,453.055481 817.767700,452.001617 
	C823.151611,451.007294 828.535583,450.012756 833.915894,448.999359 
	C839.135498,448.016266 844.326538,446.851929 849.573364,446.049957 
	C857.104492,444.898895 864.686768,444.085480 872.224731,442.975281 
	C878.619080,442.033447 885.024231,442.379944 891.489441,440.333679 
	C898.920959,437.981506 907.106750,438.019684 914.961914,436.996552 
	C922.979553,435.952301 930.993530,434.880035 939.743530,433.722931 
	C933.497375,426.915649 927.559265,421.103668 922.423218,414.653015 
	C917.701111,408.722260 910.837769,406.190125 905.010315,402.037262 
	C902.505432,400.252197 899.923340,398.554718 897.263062,397.012787 
	C890.879761,393.313019 884.449402,389.692780 877.991882,386.123962 
	C876.413025,385.251404 874.690002,384.194672 872.976685,384.081970 
	C860.546814,383.264404 848.105225,382.609650 835.661804,382.019135 
	C826.582336,381.588257 817.490112,381.424164 808.411560,380.977905 
	C796.740723,380.404236 785.083862,379.524567 773.410034,379.039642 
	C761.167236,378.531036 748.910095,378.377136 736.661865,377.984161 
	C728.908203,377.735382 721.158020,377.360382 713.410522,376.958679 
	C712.597107,376.916473 711.782959,376.366394 711.019775,375.957336 
	C704.857300,372.653961 698.778564,369.185181 692.531006,366.052551 
	C687.228638,363.393829 681.613708,361.350098 676.352234,358.619629 
	C665.312073,352.890259 654.416626,346.882294 643.455688,341.000092 
	C634.337708,336.106934 624.694702,332.406525 616.071045,326.301239 
	C609.275146,321.489899 600.764160,319.128876 593.088562,315.522858 
	C587.533875,312.913269 582.148804,309.942780 576.596924,307.326721 
	C571.820984,305.076263 566.923950,303.081177 562.066040,301.007080 
	C557.639709,299.117310 553.264709,297.074707 548.737671,295.462799 
	C543.933228,293.752258 539.058105,292.019073 534.065613,291.113129 
	C527.711487,289.960175 521.210388,289.608643 514.768738,288.950043 
	C511.187653,288.583893 507.539490,288.599457 504.024231,287.915436 
	C493.720001,285.910339 483.475739,284.400452 472.852539,284.881836 
	C449.703400,285.930908 426.520599,286.212585 403.360535,287.054413 
	C392.847107,287.436584 382.317108,287.910950 372.154419,291.329651 
	C365.666626,293.512146 359.024780,295.271454 352.385376,296.958313 
	C346.158417,298.540405 339.508392,298.958679 333.646851,301.359650 
	C324.963684,304.916412 316.772095,309.695374 308.445557,314.094666 
	C299.205933,318.976410 290.025665,323.972351 280.868439,329.007416 
	C276.849121,331.217438 272.429749,333.074982 269.107056,336.098175 
	C262.390411,342.209412 256.358398,349.066986 249.935837,355.508911 
	C239.777496,365.697998 229.375854,375.650421 219.421219,386.032867 
	C216.687210,388.884430 215.325729,393.009003 213.075317,396.376251 
	C208.472260,403.263733 203.584213,409.961761 199.027451,416.878784 
	C196.242645,421.106018 194.069839,425.739746 191.241272,429.934052 
	C186.667969,436.715454 181.603333,443.167297 177.078903,449.979309 
	C172.954498,456.189026 169.395004,462.771484 165.356628,469.041565 
	C162.090866,474.112000 158.233978,478.809784 155.090164,483.948700 
	C151.181381,490.337982 147.600479,496.940216 144.139450,503.586670 
	C141.862228,507.959778 139.877380,512.506714 138.071182,517.097595 
	C136.209259,521.830078 134.939117,526.798462 133.019745,531.504456 
	C130.291473,538.193726 127.095474,544.691162 124.308876,551.358154 
	C122.037834,556.791565 120.196274,562.403870 117.947594,567.847412 
	C113.968155,577.480835 109.774818,587.025818 105.773758,596.650513 
	C104.237000,600.347229 103.141174,604.229248 101.567383,607.908325 
	C97.114784,618.317200 92.523331,628.666687 87.978104,639.035889 
	C83.996666,648.118835 79.980827,657.186768 76.028069,666.282166 
	C74.623512,669.514099 73.271965,672.776184 72.094994,676.094910 
	C71.809082,676.901123 71.964424,678.303955 72.504936,678.891052 
	C75.827896,682.500488 79.477318,685.994629 84.741020,685.946167 
	C107.156975,685.739441 129.571686,685.368408 151.985672,684.988281 
	C168.069397,684.715515 184.150055,684.244690 200.234268,684.019470 
	C228.980148,683.617065 257.735809,683.651184 286.472504,682.918701 
	C321.572357,682.024170 356.638977,683.913574 391.812469,681.457642 
	C426.578583,679.030151 461.607422,680.468628 496.515625,679.887817 
	C503.644470,679.769165 510.687744,679.905273 518.019958,678.466125 
	C531.421692,675.835693 545.362976,675.833862 559.098450,675.089600 
	C563.975952,674.825317 569.180115,675.955688 568.044861,668.234497 
	C568.004089,667.957397 568.256104,667.641785 568.355713,667.338928 
	C569.905273,662.627625 571.465027,657.919678 572.996216,653.202454 
	C574.522034,648.501709 575.564392,643.580750 577.628052,639.131836 
	C581.278381,631.262634 586.195740,623.934082 589.345459,615.894531 
	C591.922913,609.315796 595.680481,603.602783 599.757629,598.169373 
	C605.340759,590.728760 611.902466,584.025146 617.998596,576.965881 
	C622.951416,571.230530 627.663879,565.276123 632.822632,559.735046 
	C635.484680,556.875732 639.012634,554.843933 641.927979,552.194580 
	C648.339661,546.368042 654.627319,540.404358 660.934509,534.463562 
	C667.873474,527.927734 674.550537,521.090210 681.777283,514.891907 
	C686.547363,510.800720 692.011597,507.491882 697.297974,504.036072 
	C704.845032,499.102417 712.413574,494.186584 720.160645,489.578552 
	C726.913391,485.561920 732.574158,479.445038 741.053589,477.589844 
z"/>
<path fill="#000000" opacity="1.000000" stroke="none" 
	d="
M740.999268,478.013245 
	C732.574158,479.445038 726.913391,485.561920 720.160645,489.578552 
	C712.413574,494.186584 704.845032,499.102417 697.297974,504.036072 
	C692.011597,507.491882 686.547363,510.800720 681.777283,514.891907 
	C674.550537,521.090210 667.873474,527.927734 660.934509,534.463562 
	C654.627319,540.404358 648.339661,546.368042 641.927979,552.194580 
	C639.012634,554.843933 635.484680,556.875732 632.822632,559.735046 
	C627.663879,565.276123 622.951416,571.230530 617.998596,576.965881 
	C611.902466,584.025146 605.340759,590.728760 599.757629,598.169373 
	C595.680481,603.602783 591.922913,609.315796 589.345459,615.894531 
	C586.195740,623.934082 581.278381,631.262634 577.628052,639.131836 
	C575.564392,643.580750 574.522034,648.501709 572.996216,653.202454 
	C571.465027,657.919678 569.905273,662.627625 568.355713,667.338928 
	C568.256104,667.641785 568.004089,667.957397 568.044861,668.234497 
	C569.180115,675.955688 563.975952,674.825317 559.098450,675.089600 
	C545.362976,675.833862 531.421692,675.835693 518.019958,678.466125 
	C510.687744,679.905273 503.644470,679.769165 496.515625,679.887817 
	C461.607422,680.468628 426.578583,679.030151 391.812469,681.457642 
	C356.638977,683.913574 321.572357,682.024170 286.472504,682.918701 
	C257.735809,683.651184 228.980148,683.617065 200.234268,684.019470 
	C184.150055,684.244690 168.069397,684.715515 151.985672,684.988281 
	C129.571686,685.368408 107.156975,685.739441 84.741020,685.946167 
	C79.477318,685.994629 75.827896,682.500488 72.504936,678.891052 
	C71.964424,678.303955 71.809082,676.901123 72.094994,676.094910 
	C73.271965,672.776184 74.623512,669.514099 76.028069,666.282166 
	C79.980827,657.186768 83.996666,648.118835 87.978104,639.035889 
	C92.523331,628.666687 97.114784,618.317200 101.567383,607.908325 
	C103.141174,604.229248 104.237000,600.347229 105.773758,596.650513 
	C109.774818,587.025818 113.968155,577.480835 117.947594,567.847412 
	C120.196274,562.403870 122.037834,556.791565 124.308876,551.358154 
	C127.095474,544.691162 130.291473,538.193726 133.019745,531.504456 
	C134.939117,526.798462 136.209259,521.830078 138.071182,517.097595 
	C139.877380,512.506714 141.862228,507.959778 144.139450,503.586670 
	C147.600479,496.940216 151.181381,490.337982 155.090164,483.948700 
	C158.233978,478.809784 162.090866,474.112000 165.356628,469.041565 
	C169.395004,462.771484 172.954498,456.189026 177.078903,449.979309 
	C181.603333,443.167297 186.667969,436.715454 191.241272,429.934052 
	C194.069839,425.739746 196.242645,421.106018 199.027451,416.878784 
	C203.584213,409.961761 208.472260,403.263733 213.075317,396.376251 
	C215.325729,393.009003 216.687210,388.884430 219.421219,386.032867 
	C229.375854,375.650421 239.777496,365.697998 249.935837,355.508911 
	C256.358398,349.066986 262.390411,342.209412 269.107056,336.098175 
	C272.429749,333.074982 276.849121,331.217438 280.868439,329.007416 
	C290.025665,323.972351 299.205933,318.976410 308.445557,314.094666 
	C316.772095,309.695374 324.963684,304.916412 333.646851,301.359650 
	C339.508392,298.958679 346.158417,298.540405 352.385376,296.958313 
	C359.024780,295.271454 365.666626,293.512146 372.154419,291.329651 
	C382.317108,287.910950 392.847107,287.436584 403.360535,287.054413 
	C426.520599,286.212585 449.703400,285.930908 472.852539,284.881836 
	C483.475739,284.400452 493.720001,285.910339 504.024231,287.915436 
	C507.539490,288.599457 511.187653,288.583893 514.768738,288.950043 
	C521.210388,289.608643 527.711487,289.960175 534.065613,291.113129 
	C539.058105,292.019073 543.933228,293.752258 548.737671,295.462799 
	C553.264709,297.074707 557.639709,299.117310 562.066040,301.007080 
	C566.923950,303.081177 571.820984,305.076263 576.596924,307.326721 
	C582.148804,309.942780 587.533875,312.913269 593.088562,315.522858 
	C600.764160,319.128876 609.275146,321.489899 616.071045,326.301239 
	C624.694702,332.406525 634.337708,336.106934 643.455688,341.000092 
	C654.416626,346.882294 665.312073,352.890259 676.352234,358.619629 
	C681.613708,361.350098 687.228638,363.393829 692.531006,366.052551 
	C698.778564,369.185181 704.857300,372.653961 711.019775,375.957336 
	C711.782959,376.366394 712.597107,376.916473 713.410522,376.958679 
	C721.158020,377.360382 728.908203,377.735382 736.661865,377.984161 
	C748.910095,378.377136 761.167236,378.531036 773.410034,379.039642 
	C785.083862,379.524567 796.740723,380.404236 808.411560,380.977905 
	C817.490112,381.424164 826.582336,381.588257 835.661804,382.019135 
	C848.105225,382.609650 860.546814,383.264404 872.976685,384.081970 
	C874.690002,384.194672 876.413025,385.251404 877.991882,386.123962 
	C884.449402,389.692780 890.879761,393.313019 897.263062,397.012787 
	C899.923340,398.554718 902.505432,400.252197 905.010315,402.037262 
	C910.837769,406.190125 917.701111,408.722260 922.423218,414.653015 
	C927.559265,421.103668 933.497375,426.915649 939.743530,433.722931 
	C930.993530,434.880035 922.979553,435.952301 914.961914,436.996552 
	C907.106750,438.019684 898.920959,437.981506 891.489441,440.333679 
	C885.024231,442.379944 878.619080,442.033447 872.224731,442.975281 
	C864.686768,444.085480 857.104492,444.898895 849.573364,446.049957 
	C844.326538,446.851929 839.135498,448.016266 833.915894,448.999359 
	C828.535583,450.012756 823.151611,451.007294 817.767700,452.001617 
	C812.061279,453.055481 806.187622,453.567108 800.686035,455.277496 
	C793.216736,457.599609 786.012085,460.786621 778.730103,463.693481 
	C771.332886,466.646332 764.039124,469.867432 756.586609,472.669342 
	C751.509888,474.578064 746.238159,475.967957 740.999268,478.013245 
z"/>
</svg>